<?xml version="1.0" encoding="UTF-8" standalone="no"?>
<!-- Created with Inkscape (http://www.inkscape.org/) -->

<svg
   version="1.1"
   id="svg2"
   width="2049"
   height="1002.2533"
   viewBox="0 0 2049 1002.2533"
   xmlns="http://www.w3.org/2000/svg"
   xmlns:svg="http://www.w3.org/2000/svg">
  <defs
     id="defs6" />
  <g
     id="g8"
     transform="matrix(1.3333333,0,0,-1.3333333,0,1002.2533)">
    <g
       id="g10"
       transform="scale(0.1)">
      <path
         d="m 9268.14,5413.97 c -25.17,17.52 -55.4,26.31 -91.23,26.31 h -888.29 c -505.35,0 -497.01,-546.93 -497.01,-546.93 V 90.1406 c 0,-25.082 12.41,-46.3593 37.58,-63.8398 C 7854.19,8.69141 7884.6,0 7920.6,0 h 1256.31 c 35.83,0 66.06,8.69141 91.23,26.3008 24.99,17.4805 37.58,38.7578 37.58,63.8398 V 5350.13 c 0,24.95 -12.59,46.23 -37.58,63.84"
         style="fill:#211d1d;fill-opacity:1;fill-rule:nonzero;stroke:none"
         id="path12" />
      <path
         d="m 9529.93,7051.86 c -4.59,23.93 -10.12,47.46 -17.31,70.07 -55.69,176.93 -211.02,306.63 -415.48,346.86 -202.6,39.91 -404.21,-16.96 -539.12,-148.83 -140.22,135.89 -350.62,191.28 -556.07,144.74 -195.55,-44.24 -344.32,-172.47 -397.91,-343.07 -7.17,-22.78 -12.67,-46.36 -17.22,-70.13 -9.53,-109.31 -0.33,-429.34 406.81,-569.22 399.61,-137.27 513.92,-369.39 538.99,-434.83 8.25,-3.72 16.9,-6.17 25.78,-6.17 8.88,0 17.52,2.45 25.77,6.17 25.07,65.44 139.38,297.56 538.99,434.83 407.65,140.05 416.36,460.66 406.77,569.58"
         style="fill:#211d1d;fill-opacity:1;fill-rule:nonzero;stroke:none"
         id="path14" />
      <path
         d="m 15285.5,7477.93 -361.6,30.23 c -467.2,40.38 -857.3,-74.28 -1131.7,-328.23 -298.5,-276.32 -454.6,-716.24 -451.1,-1271.86 l 1.1,-480.16 -4.4,-1.14 5.6,-2162.26 c 0,-21.5 -9,-34.09 -26.9,-37.58 -18,-3.67 -30.6,5.24 -37.5,26.74 l -1342.3,4155.88 c -21.5,71.48 -68.2,107.31 -139.7,107.31 h -1406.6 c -36,0 -66.4,-12.58 -91.4,-37.58 -25.2,-25.17 -37.6,-55.58 -37.6,-91.23 V 128.809 c 0,-35.8285 12.4,-66.2387 37.6,-91.227 C 10324,12.4102 10354.4,0 10390.4,0 h 955.5 c 0,0 418,67.3789 418,488.5 l -9.7,3763.85 c 0,21.5 8.7,33.91 26.7,37.58 17.9,3.5 30.4,-5.24 37.6,-26.74 L 13150.1,107.309 C 13171.6,35.6484 13218.1,0 13289.6,0 h 1417.6 c 35.7,0 66.1,12.4102 91.3,37.582 25,24.9883 37.6,55.3985 37.6,91.227 V 5779.91 c 14.5,77.52 44.9,148.17 87.6,198.77 53.5,63.1 120.1,91.06 201.7,85.12 l 146.7,-7.34 c 23.7,-2.45 48.2,7.51 66.2,24.47 17.7,16.77 27.8,40.19 27.8,64.66 l 1.4,1243.03 c 0,46.66 -35.6,85.46 -82,89.31"
         style="fill:#211d1d;fill-opacity:1;fill-rule:nonzero;stroke:none"
         id="path16" />
      <path
         d="m 6840.29,7516.86 h -889.81 c -384.23,-0.09 -524.53,-292.49 -576.05,-496.5 l -30.13,-193.09 v 0 0 L 4885.92,3890.91 c -7.16,-28.66 -18,-42.99 -32.15,-42.99 -14.51,0 -25.17,14.33 -32.34,42.99 l -633.57,3507.8 c -7.17,78.65 -53.66,118.15 -139.47,118.15 H 2963.71 c -85.81,0 -132.48,-39.5 -139.47,-118.15 L 2244.33,4069.88 c -7.34,-28.66 -18.01,-42.99 -32.34,-42.99 -14.33,0 -25.17,14.33 -32.16,42.99 l -556.97,3029.26 c -66.63,192.95 -216.16,417.72 -552.89,417.72 H 118.148 C 39.1484,7516.86 0,7484.7 0,7420.21 l 10.6602,-43 L 1460.45,118.148 C 1474.6,39.3203 1521.09,0 1599.92,0 h 1148.99 c 85.99,0 132.48,39.3203 139.65,118.148 l 569.08,3973.232 c 7.16,28.49 17.82,42.82 32.33,42.82 14.16,0 24.99,-14.33 32.16,-42.82 L 4155.7,118.148 C 4162.69,39.3203 4209.36,0 4295.35,0 H 5455 c 85.99,0 132.48,39.3203 139.65,118.148 L 6958.44,7377.21 c 14.34,92.99 -25.16,139.65 -118.15,139.65"
         style="color:#000000;font-style:normal;font-variant:normal;font-weight:normal;font-stretch:normal;font-size:medium;line-height:normal;font-family:sans-serif;font-variant-ligatures:normal;font-variant-position:normal;font-variant-caps:normal;font-variant-numeric:normal;font-variant-alternates:normal;font-variant-east-asian:normal;font-feature-settings:normal;font-variation-settings:normal;text-indent:0;text-align:start;text-decoration-line:none;text-decoration-style:solid;text-decoration-color:#000000;letter-spacing:normal;word-spacing:normal;text-transform:none;writing-mode:lr-tb;direction:ltr;text-orientation:mixed;dominant-baseline:auto;baseline-shift:baseline;text-anchor:start;white-space:normal;shape-padding:0;shape-margin:0;inline-size:0;clip-rule:nonzero;display:inline;overflow:visible;visibility:visible;isolation:auto;mix-blend-mode:normal;color-interpolation:sRGB;color-interpolation-filters:linearRGB;solid-color:#000000;solid-opacity:1;vector-effect:none;fill:#211d1d;fill-opacity:1;fill-rule:nonzero;stroke:none;stroke-linecap:butt;stroke-linejoin:miter;stroke-miterlimit:4;stroke-dasharray:none;stroke-dashoffset:0;stroke-opacity:1;-inkscape-stroke:none;color-rendering:auto;image-rendering:auto;shape-rendering:auto;text-rendering:auto;enable-background:accumulate;stop-color:#000000;stop-opacity:1"
         id="path18" />
    </g>
  </g>
</svg>
