<svg width="19" height="21" viewBox="0 0 19 21" fill="none" xmlns="http://www.w3.org/2000/svg">
<path d="M8.92848 19.8082L8.93873 19.8063C8.9468 19.8076 8.95208 19.8131 8.95457 19.8231L8.9704 20.2209L8.96668 20.2368L8.9555 20.2517L8.8586 20.3206L8.84742 20.3243L8.83344 20.3206L8.73655 20.2517L8.72723 20.2396L8.72257 20.2209L8.73841 19.8222L8.74214 19.8128C8.7471 19.8066 8.75456 19.8051 8.7645 19.8082L8.83065 19.8408L8.84369 19.8445L8.86233 19.8408L8.92848 19.8082Z" fill="#F85705"/>
<path d="M9.17352 19.7029L9.18563 19.701C9.19495 19.7035 9.20116 19.7103 9.20427 19.7215L9.23594 20.2936L9.23222 20.3066C9.226 20.3147 9.217 20.3172 9.2052 20.3141L9.01792 20.2274L9.01047 20.2209L9.00581 20.2097L8.98904 19.8091L8.99183 19.7989L9.00115 19.7895L9.17352 19.7029Z" fill="#F85705"/>
<path d="M8.50576 19.7006C8.51044 19.6996 8.51535 19.7004 8.51946 19.7029L8.69089 19.7886L8.70021 19.7979L8.703 19.8091L8.68716 20.2097L8.68344 20.22L8.67412 20.2274L8.48685 20.3141L8.47287 20.316C8.46293 20.3122 8.45765 20.3048 8.45703 20.2936L8.48871 19.7215L8.4943 19.7085C8.49697 19.7045 8.50107 19.7017 8.50576 19.7006Z" fill="#F85705"/>
<path fill-rule="evenodd" clip-rule="evenodd" d="M12.1123 11.1806C13.3478 11.1806 14.5327 11.6714 15.4064 12.545C16.28 13.4187 16.7708 14.6036 16.7708 15.8391V17.7025C16.7708 17.9497 16.6727 18.1866 16.4979 18.3614C16.3232 18.5361 16.0862 18.6343 15.8391 18.6343C15.592 18.6343 15.355 18.5361 15.1803 18.3614C15.0056 18.1866 14.9074 17.9497 14.9074 17.7025V15.8391C14.9074 15.0978 14.6129 14.3868 14.0887 13.8627C13.5645 13.3385 12.8536 13.044 12.1123 13.044H4.65857C3.91725 13.044 3.20629 13.3385 2.6821 13.8627C2.15791 14.3868 1.86343 15.0978 1.86343 15.8391V17.7025C1.86343 17.9497 1.76526 18.1866 1.59053 18.3614C1.4158 18.5361 1.17882 18.6343 0.931713 18.6343C0.684607 18.6343 0.447622 18.5361 0.272892 18.3614C0.0981623 18.1866 0 17.9497 0 17.7025V15.8391C0 14.6036 0.490812 13.4187 1.36446 12.545C2.23811 11.6714 3.42304 11.1806 4.65857 11.1806H12.1123ZM15.8391 5.59028C16.0862 5.59028 16.3232 5.68844 16.4979 5.86317C16.6727 6.0379 16.7708 6.27489 16.7708 6.52199V7.4537H17.7025C17.9497 7.4537 18.1866 7.55187 18.3614 7.7266C18.5361 7.90133 18.6343 8.13831 18.6343 8.38542C18.6343 8.63252 18.5361 8.86951 18.3614 9.04424C18.1866 9.21897 17.9497 9.31713 17.7025 9.31713H16.7708V10.2488C16.7708 10.4959 16.6727 10.7329 16.4979 10.9077C16.3232 11.0824 16.0862 11.1806 15.8391 11.1806C15.592 11.1806 15.355 11.0824 15.1803 10.9077C15.0056 10.7329 14.9074 10.4959 14.9074 10.2488V9.31713H13.9757C13.7286 9.31713 13.4916 9.21897 13.3169 9.04424C13.1421 8.86951 13.044 8.63252 13.044 8.38542C13.044 8.13831 13.1421 7.90133 13.3169 7.7266C13.4916 7.55187 13.7286 7.4537 13.9757 7.4537H14.9074V6.52199C14.9074 6.27489 15.0056 6.0379 15.1803 5.86317C15.355 5.68844 15.592 5.59028 15.8391 5.59028ZM8.38542 0C9.62094 0 10.8059 0.490812 11.6795 1.36446C12.5532 2.23811 13.044 3.42304 13.044 4.65857C13.044 5.89409 12.5532 7.07902 11.6795 7.95267C10.8059 8.82632 9.62094 9.31713 8.38542 9.31713C7.14989 9.31713 5.96496 8.82632 5.09131 7.95267C4.21766 7.07902 3.72685 5.89409 3.72685 4.65857C3.72685 3.42304 4.21766 2.23811 5.09131 1.36446C5.96496 0.490812 7.14989 0 8.38542 0ZM8.38542 1.86343C8.01835 1.86343 7.65489 1.93572 7.31576 2.07619C6.97664 2.21666 6.66851 2.42255 6.40895 2.6821C6.1494 2.94166 5.94351 3.24979 5.80304 3.58891C5.66258 3.92803 5.59028 4.2915 5.59028 4.65857C5.59028 5.02563 5.66258 5.3891 5.80304 5.72822C5.94351 6.06734 6.1494 6.37547 6.40895 6.63503C6.66851 6.89458 6.97664 7.10047 7.31576 7.24094C7.65489 7.38141 8.01835 7.4537 8.38542 7.4537C9.12673 7.4537 9.83769 7.15922 10.3619 6.63503C10.8861 6.11084 11.1806 5.39988 11.1806 4.65857C11.1806 3.91725 10.8861 3.20629 10.3619 2.6821C9.83769 2.15791 9.12673 1.86343 8.38542 1.86343Z" fill="#F85705"/>
</svg>
