<?xml version="1.0" encoding="iso-8859-1"?>
<!-- Uploaded to: SVG Repo, www.svgrepo.com, Generator: SVG Repo Mixer Tools -->
<svg fill="#F9C7CE" height="800px" width="800px" version="1.1" id="Capa_1" xmlns="http://www.w3.org/2000/svg" xmlns:xlink="http://www.w3.org/1999/xlink" 
	 viewBox="0 0 224.089 224.089" xml:space="preserve">
<path d="M199.062,167.072h-73.15c18.527-21.54,55.571-68.165,55.571-96.617c0-38.288-31.149-69.438-69.438-69.438
	s-69.438,31.15-69.438,69.438c0,28.452,37.044,75.077,55.572,96.617H25.027L0,223.072h224.089L199.062,167.072z M77.066,82.003
	c-2.786-4.722-4.762-9.935-4.435-16.785c0.581-12.126,9.457-22.141,20.326-22.141c11.175,0,19.087,8.9,19.087,8.9
	s8.391-8.9,19.086-8.9c10.87,0,19.745,10.014,20.326,22.141c0.328,6.85-1.643,12.042-4.435,16.785
	c-5.601,9.515-34.942,28.569-34.942,28.569S82.631,91.437,77.066,82.003z"/>
</svg>