<?xml version="1.0" standalone="no"?>
<!DOCTYPE svg PUBLIC "-//W3C//DTD SVG 20010904//EN"
 "http://www.w3.org/TR/2001/REC-SVG-20010904/DTD/svg10.dtd">
<svg version="1.0" xmlns="http://www.w3.org/2000/svg"
 width="500.000000pt" height="500.000000pt" viewBox="0 0 500.000000 500.000000"
 preserveAspectRatio="xMidYMid meet">

<g transform="translate(0.000000,500.000000) scale(0.100000,-0.100000)"
fill="#000000" stroke="none">
<path d="M2145 4755 l7 -245 -843 -2 -844 -3 -3 -827 -2 -828 -230 0 -230 0 0
-345 0 -345 230 0 230 0 2 -22 c1 -13 2 -387 3 -833 l0 -810 838 -3 837 -2 0
-245 0 -245 350 0 350 0 0 245 0 245 840 0 840 0 2 308 c1 169 1 539 0 822 -1
283 1 522 3 530 4 13 38 15 240 12 l235 -3 0 345 0 346 -237 2 -238 3 -3 828
-2 827 -840 0 -840 0 0 245 0 245 -351 0 -351 0 7 -245z m344 -1143 c5 -10 21
-63 35 -118 36 -142 104 -375 110 -382 10 -10 18 6 31 60 8 29 32 125 55 213
24 88 45 174 47 190 3 17 10 36 15 43 8 9 124 12 519 12 401 0 509 -3 509 -12
-1 -7 1 -168 4 -358 4 -251 8 -1595 6 -1902 0 -17 -43 -18 -754 -18 l-754 0
-97 145 c-54 80 -101 145 -104 145 -4 0 -25 -24 -46 -52 -47 -63 -150 -196
-170 -220 -14 -17 -48 -18 -463 -18 -247 0 -451 3 -455 6 -3 3 2 29 13 58 10
28 34 103 55 166 124 393 661 2012 677 2043 8 16 37 17 383 17 351 0 375 -1
384 -18z"/>
<path d="M1907 3088 c-102 -299 -189 -553 -247 -718 -63 -179 -195 -563 -210
-613 l-9 -28 141 3 141 3 41 125 41 125 296 3 296 2 39 -130 38 -130 143 0
c79 0 143 2 143 4 0 6 -80 240 -115 336 -14 41 -51 143 -80 225 -29 83 -70
195 -90 250 -37 102 -235 667 -235 672 0 2 -65 3 -144 3 l-143 0 -46 -132z
m203 -241 c0 -8 43 -143 95 -302 52 -158 95 -294 95 -301 0 -11 -38 -14 -205
-14 -136 0 -205 4 -205 10 0 25 202 620 211 620 5 0 9 -6 9 -13z"/>
<path d="M3126 2484 c-3 -404 -4 -740 -1 -745 4 -5 67 -9 141 -9 l134 0 0 745
0 745 -133 0 -134 0 -7 -736z"/>
</g>
</svg>
